<svg width="22" height="20" viewBox="0 0 22 20" fill="none" xmlns="http://www.w3.org/2000/svg">
<path d="M19.4704 14.744H8.20676C7.52918 14.7412 6.87279 14.5066 6.3458 14.0791C5.8188 13.6516 5.45265 13.0566 5.3077 12.3922L2.88423 1.06321H0.529605C0.389145 1.06321 0.254437 1.0072 0.155117 0.907505C0.0557971 0.80781 0 0.672594 0 0.531604C0 0.390614 0.0557971 0.255399 0.155117 0.155704C0.254437 0.0560087 0.389145 2.37192e-08 0.529605 2.37192e-08H3.31268C3.43385 -3.62948e-05 3.55137 0.0416362 3.64563 0.118064C3.73989 0.194491 3.80519 0.301052 3.83063 0.419968L6.34361 12.1684C6.43689 12.5954 6.67232 12.9778 7.0111 13.2525C7.34987 13.5273 7.77177 13.6779 8.20729 13.6798H19.4704C19.6109 13.6798 19.7456 13.7358 19.8449 13.8355C19.9442 13.9352 20 14.0704 20 14.2114C20 14.3524 19.9442 14.4876 19.8449 14.5873C19.7456 14.687 19.6109 14.743 19.4704 14.743V14.744Z" fill="black"/>
<path d="M16.8758 11.0887H5.45385C5.31339 11.0887 5.17868 11.0327 5.07936 10.933C4.98004 10.8333 4.92424 10.6981 4.92424 10.5571C4.92424 10.4161 4.98004 10.2809 5.07936 10.1812C5.17868 10.0815 5.31339 10.0255 5.45385 10.0255H16.8758C17.1302 10.0269 17.3765 9.93632 17.5699 9.77038C17.7632 9.60445 17.8905 9.37423 17.9287 9.1218L18.7353 3.89188H3.91535C3.77489 3.89188 3.64018 3.83587 3.54086 3.73618C3.44154 3.63648 3.38574 3.50127 3.38574 3.36028C3.38574 3.21929 3.44154 3.08407 3.54086 2.98438C3.64018 2.88468 3.77489 2.82867 3.91535 2.82867H19.3533C19.4297 2.82869 19.5052 2.8453 19.5746 2.87735C19.644 2.9094 19.7057 2.95615 19.7554 3.01437C19.8051 3.0726 19.8416 3.14093 19.8626 3.21467C19.8835 3.28842 19.8883 3.36584 19.8766 3.44161L18.9763 9.28447C18.9003 9.78826 18.6463 10.2478 18.2607 10.5791C17.875 10.9104 17.3834 11.0913 16.8758 11.0887Z" fill="black"/>
<path d="M16.7235 20C16.2956 19.9999 15.8774 19.8724 15.5217 19.6338C15.166 19.3951 14.8887 19.0559 14.7251 18.6591C14.5614 18.2623 14.5186 17.8256 14.6022 17.4044C14.6857 16.9832 14.8918 16.5963 15.1944 16.2927C15.497 15.989 15.8825 15.7822 16.3021 15.6985C16.7218 15.6147 17.1567 15.6578 17.552 15.8222C17.9473 15.9865 18.2852 16.2649 18.5229 16.622C18.7605 16.9791 18.8874 17.3989 18.8874 17.8284C18.8867 18.4042 18.6585 18.9562 18.2528 19.3634C17.8471 19.7705 17.2971 19.9994 16.7235 20ZM16.7235 16.7195C16.5051 16.7196 16.2916 16.7847 16.1101 16.9065C15.9286 17.0284 15.7872 17.2015 15.7037 17.4041C15.6202 17.6066 15.5984 17.8295 15.641 18.0444C15.6837 18.2594 15.7889 18.4569 15.9434 18.6118C16.0978 18.7668 16.2946 18.8723 16.5088 18.915C16.7229 18.9577 16.9449 18.9357 17.1467 18.8518C17.3484 18.7679 17.5208 18.6259 17.6422 18.4436C17.7635 18.2613 17.8282 18.0471 17.8282 17.8279C17.8278 17.5339 17.7112 17.2522 17.5041 17.0444C17.297 16.8366 17.0163 16.7198 16.7235 16.7195Z" fill="black"/>
<path d="M9.33433 20C8.90645 20 8.48817 19.8726 8.13239 19.634C7.77662 19.3954 7.49933 19.0562 7.33558 18.6594C7.17184 18.2626 7.12899 17.826 7.21247 17.4047C7.29595 16.9835 7.50199 16.5966 7.80456 16.2928C8.10712 15.9891 8.4926 15.7823 8.91227 15.6985C9.33193 15.6147 9.76693 15.6577 10.1622 15.8221C10.5576 15.9865 10.8954 16.2648 11.1332 16.6219C11.3709 16.979 11.4978 17.3989 11.4978 17.8284C11.4971 18.4041 11.2689 18.9561 10.8633 19.3632C10.4578 19.7703 9.9079 19.9993 9.33433 20ZM9.33433 16.7195C9.11594 16.7195 8.90245 16.7845 8.72086 16.9063C8.53927 17.0281 8.39774 17.2012 8.31416 17.4037C8.23059 17.6062 8.20872 17.8291 8.25133 18.0441C8.29393 18.2591 8.3991 18.4566 8.55353 18.6116C8.70796 18.7666 8.90471 18.8722 9.11891 18.915C9.33311 18.9577 9.55513 18.9358 9.7569 18.8519C9.95867 18.768 10.1311 18.6259 10.2525 18.4437C10.3738 18.2614 10.4386 18.0471 10.4386 17.8279C10.4381 17.534 10.3217 17.2524 10.1147 17.0446C9.90768 16.8368 9.62706 16.7199 9.33433 16.7195Z" fill="black"/>
<path d="M17.026 6H17.992V1.83H17.206C17.038 2.286 16.75 2.478 16.246 2.496H16.132V3.366H16.3C16.582 3.366 16.864 3.288 17.026 3.138V6ZM18.7463 6H21.8903V5.232H20.0663C20.4863 4.998 20.8283 4.764 21.1043 4.524C21.6083 4.074 21.8543 3.6 21.8543 3.042C21.8543 2.214 21.2903 1.74 20.3303 1.74C19.3523 1.74 18.7403 2.244 18.7403 3.024C18.7403 3.126 18.7523 3.24 18.7763 3.348L19.7603 3.444C19.7363 3.318 19.7183 3.204 19.7183 3.102C19.7183 2.73 19.9283 2.502 20.2823 2.502C20.6303 2.502 20.8223 2.718 20.8223 3.114C20.8223 3.522 20.6603 3.834 20.2523 4.212C19.8863 4.554 19.3703 4.914 18.7463 5.292V6Z" fill="white"/>
</svg>
