<svg width="200" height="200" viewBox="0 0 200 200" fill="none" xmlns="http://www.w3.org/2000/svg">
<circle cx="100" cy="100" r="100" fill="white"/>
<path d="M48.9219 133V64.75H71.2344C78.6406 64.75 84.2031 66.2812 87.9219 69.3438C91.6719 72.4062 93.5469 76.9375 93.5469 82.9375C93.5469 86.125 92.6406 88.9531 90.8281 91.4219C89.0156 93.8594 86.5469 95.75 83.4219 97.0938C87.1094 98.125 90.0156 100.094 92.1406 103C94.2969 105.875 95.375 109.312 95.375 113.312C95.375 119.438 93.3906 124.25 89.4219 127.75C85.4531 131.25 79.8438 133 72.5938 133H48.9219ZM57.9219 101.078V125.641H72.7812C76.9688 125.641 80.2656 124.562 82.6719 122.406C85.1094 120.219 86.3281 117.219 86.3281 113.406C86.3281 105.188 81.8594 101.078 72.9219 101.078H57.9219ZM57.9219 93.8594H71.5156C75.4531 93.8594 78.5938 92.875 80.9375 90.9062C83.3125 88.9375 84.5 86.2656 84.5 82.8906C84.5 79.1406 83.4062 76.4219 81.2188 74.7344C79.0312 73.0156 75.7031 72.1562 71.2344 72.1562H57.9219V93.8594ZM133.766 105.391H117.734V133H108.688V64.75H131.281C138.969 64.75 144.875 66.5 149 70C153.156 73.5 155.234 78.5938 155.234 85.2812C155.234 89.5312 154.078 93.2344 151.766 96.3906C149.484 99.5469 146.297 101.906 142.203 103.469L158.234 132.438V133H148.578L133.766 105.391ZM117.734 98.0312H131.562C136.031 98.0312 139.578 96.875 142.203 94.5625C144.859 92.25 146.188 89.1562 146.188 85.2812C146.188 81.0625 144.922 77.8281 142.391 75.5781C139.891 73.3281 136.266 72.1875 131.516 72.1562H117.734V98.0312Z" fill="black"/>
</svg>
