<svg width="30" height="30" viewBox="0 0 30 30" fill="none" xmlns="http://www.w3.org/2000/svg">
<path d="M27.857 4.28573H20.3571V3.21428C20.3571 1.43908 18.918 0 17.1428 0H12.857C11.0818 0 9.64275 1.43908 9.64275 3.21428V4.28573H2.14274C1.55098 4.28573 1.07129 4.76542 1.07129 5.35718C1.07129 5.94893 1.55105 6.42856 2.14274 6.42856H3.30735L5.35702 29.026C5.40756 29.5794 5.87281 30.0022 6.42847 30H23.5713C24.127 30.0023 24.5922 29.5794 24.6428 29.026L26.6924 6.42856H27.8571C28.4488 6.42856 28.9285 5.94887 28.9285 5.35711C28.9285 4.76536 28.4488 4.28573 27.857 4.28573ZM11.7856 3.21428C11.7856 2.62253 12.2653 2.14283 12.857 2.14283H17.1428C17.7345 2.14283 18.2142 2.62253 18.2142 3.21428V4.28573H11.7857V3.21428H11.7856ZM22.5931 27.8571H7.40669L5.46418 6.42856H10.7142H24.541L22.5931 27.8571Z" fill="#C92805"/>
<path d="M11.7862 24.5712C11.7861 24.5697 11.786 24.5682 11.7859 24.5668L10.7144 9.56683C10.6724 8.97507 10.1586 8.52947 9.56695 8.57147C8.9752 8.61347 8.52959 9.12725 8.57159 9.71894L9.64304 24.7189C9.68303 25.2807 10.1512 25.7157 10.7145 25.7143H10.7916C11.382 25.6733 11.8273 25.1615 11.7862 24.5712Z" fill="#C92805"/>
<path d="M14.9997 8.5714C14.4079 8.5714 13.9282 9.05109 13.9282 9.64285V24.6428C13.9282 25.2346 14.4079 25.7143 14.9997 25.7143C15.5914 25.7143 16.0711 25.2346 16.0711 24.6428V9.64285C16.0711 9.05109 15.5914 8.5714 14.9997 8.5714Z" fill="#C92805"/>
<path d="M20.4333 8.57141C19.8415 8.52941 19.3278 8.97501 19.2858 9.56677L18.2144 24.5667C18.171 25.1569 18.6142 25.6705 19.2043 25.7138C19.2061 25.714 19.2079 25.7141 19.2097 25.7142H19.2858C19.8491 25.7157 20.3173 25.2807 20.3573 24.7188L21.4287 9.71888C21.4707 9.12719 21.025 8.61347 20.4333 8.57141Z" fill="#C92805"/>
</svg>
